<svg id="Layer_1" data-name="Layer 1" xmlns="http://www.w3.org/2000/svg" viewBox="0 0 2128.13 931.05"><defs><style>.cls-1{opacity:0.01;}.cls-2{fill:#010101;}</style></defs><title>background-image</title><g class="cls-1"><path class="cls-2" d="M1198.54,861.53c-252.71,0-452.23-212.81-645.09-419C367.24,249.69,194.33,63.48,1.46,63.48c-186.21,0-332.52,146.31-332.52,332.52S-184.75,728.52,1.46,728.52c113.06,0,232.76-59.85,379.07-199.51,26.6-26.6,66.5-26.6,93.11,0s26.6,66.5,0,93.11C353.94,735.17,201,861.53,1.46,861.53c-259.37,0-465.53-206.16-465.53-465.53S-257.9-69.53,1.46-69.53c232.76,0,419,179.56,598.54,365.77C779.56,110,965.77-69.53,1198.54-69.53c259.37,0,465.53,206.16,465.53,465.53S1457.9,861.53,1198.54,861.53ZM693.11,396C859.37,575.56,1019,728.52,1198.54,728.52c186.21,0,332.52-146.31,332.52-332.52S1384.75,63.48,1198.54,63.48C1019,63.48,859.37,216.44,693.11,396Z" transform="translate(464.06 69.53)"/></g></svg>