<svg id="Layer_1" data-name="Layer 1" xmlns="http://www.w3.org/2000/svg" viewBox="0 0 315.05 120.1"><defs><style>.cls-1{font-size:72px;font-family:Nanum Myeongjo;}.cls-1,.cls-2{fill:#231f20;}</style></defs><title>logo</title><text class="cls-1" transform="translate(0 61.57)">inifinite</text><path class="cls-2" d="M419.24,196.1c-10.94,0-19.63-9.26-28-18.21-7.94-8.46-15.44-16.45-23.95-16.45a14.44,14.44,0,0,0,0,28.88c5,0,10-2.69,16.4-8.72a2.89,2.89,0,0,1,4,4.2c-5.08,4.79-12,10.29-20.37,10.29a20.22,20.22,0,0,1,0-40.43c10.08,0,18.24,7.79,26,16,7.77-8.21,15.91-16,26-16A20.22,20.22,0,1,1,419.24,196.1Zm-22-20.22c7.24,7.67,14.21,14.44,22,14.44a14.44,14.44,0,1,0,0-28.88C411.45,161.44,404.49,168.22,397.25,175.88Z" transform="translate(-164.84 -90.76)"/><text class="cls-1" transform="translate(182.2 58.53) rotate(180)">l</text><text class="cls-1" transform="translate(274.62 99.57)">p</text></svg>