<?xml version="1.0" encoding="utf-8"?>
<!-- Generator: Adobe Illustrator 19.2.1, SVG Export Plug-In . SVG Version: 6.00 Build 0)  -->
<svg version="1.1" id="Layer_1" xmlns="http://www.w3.org/2000/svg" xmlns:xlink="http://www.w3.org/1999/xlink" x="0px" y="0px"
	 viewBox="0 0 315 120.1" style="enable-background:new 0 0 315 120.1;" xml:space="preserve">
<style type="text/css">
	.st0{fill:#231F20;}
	.st1{font-family:'NanumMyeongjo';}
	.st2{font-size:72px;}
</style>
<title>logo</title>
<text transform="matrix(1 0 0 1 20 61.57)" class="st0 st1 st2">infinite</text>
<path class="st0" d="M254.4,105.3c-10.9,0-19.6-9.3-28-18.2c-7.9-8.5-15.4-16.4-24-16.4c-8,0-14.4,6.5-14.4,14.4s6.5,14.4,14.4,14.4
	c5,0,10-2.7,16.4-8.7c1.2-1.1,3-1.1,4.1,0.1c1.1,1.2,1.1,3-0.1,4.1c-5.1,4.8-12,10.3-20.4,10.3c-11.2-0.2-20-9.5-19.8-20.7
	c0.2-10.8,9-19.5,19.8-19.8c10.1,0,18.2,7.8,26,16c7.8-8.2,15.9-16,26-16c11.2,0,20.2,9.1,20.2,20.3
	C274.6,96.3,265.6,105.4,254.4,105.3z M232.4,85.1c7.2,7.7,14.2,14.4,22,14.4c8,0,14.4-6.5,14.4-14.4s-6.5-14.4-14.4-14.4
	C246.6,70.7,239.6,77.5,232.4,85.1L232.4,85.1z"/>
<text transform="matrix(-1 0 0 -1 182.1992 58.5293)" class="st0 st1 st2">l</text>
<text transform="matrix(1 0 0 1 274.62 99.57)" class="st0 st1 st2">p</text>
</svg>
