<svg id="Layer_1" data-name="Layer 1" xmlns="http://www.w3.org/2000/svg" viewBox="0 0 14 32"><defs><style>.cls-1{fill:#fff;}</style></defs><title>useless</title><path class="cls-1" d="M313,387c0,3.79-3.2,6.8-6.31,9.71-2.93,2.75-5.69,5.35-5.69,8.29a5,5,0,0,0,10,0c0-1.72-.93-3.47-3-5.68a1,1,0,1,1,1.45-1.37c1.66,1.76,3.56,4.15,3.56,7.05a7,7,0,0,1-14,0c0-3.49,2.7-6.32,5.54-9-2.84-2.69-5.54-5.51-5.54-9A7,7,0,0,1,313,387Zm-7,7.61c2.65-2.51,5-4.92,5-7.61a5,5,0,0,0-10,0C301,389.7,303.35,392.11,306,394.61Z" transform="translate(-299 -380)"/></svg>